<svg fill="#000000" xmlns="http://www.w3.org/2000/svg"  viewBox="0 0 130 130" width="150px" height="150px">

<g transform="translate(0.000000,128.000000) scale(0.100000,-0.100000)" stroke="none">
<path d="M535 1118 c-87 -31 -239 -171 -324 -299 -46 -69 -60 -109 -68 -197
-5 -58 -3 -68 31 -136 29 -61 55 -92 140 -172 119 -114 185 -157 275 -180 116
-29 205 3 326 117 98 93 168 182 203 256 22 48 27 72 27 138 0 70 -4 87 -30
135 -34 62 -184 219 -260 270 -80 55 -151 80 -225 79 -36 0 -78 -5 -95 -11z
m508 -427 c9 -11 9 -15 0 -18 -16 -6 -18 -113 -3 -113 6 0 10 -7 10 -16 0 -10
-7 -14 -22 -12 -21 3 -23 9 -26 71 -3 58 -5 67 -22 67 -16 0 -18 -5 -13 -35
l6 -35 -52 0 c-28 0 -51 -2 -51 -4 0 -36 51 -50 69 -18 7 12 13 14 20 7 18
-18 -16 -55 -50 -55 -67 0 -96 94 -44 145 20 21 34 25 80 25 48 0 55 3 55 19
0 27 24 33 28 7 2 -12 9 -27 15 -35z m-673 -31 c18 -49 27 -60 45 -60 13 0 25
-7 29 -15 6 -17 32 -20 41 -5 3 6 -14 19 -38 29 -53 23 -66 50 -43 86 13 20
25 25 58 25 25 0 49 -7 60 -17 17 -15 18 -15 18 0 0 14 10 17 54 17 63 0 86
-16 86 -60 0 -37 -24 -60 -61 -60 -27 0 -29 -3 -29 -35 0 -31 -3 -35 -25 -35
-17 0 -25 6 -25 17 0 15 -1 15 -18 0 -24 -22 -172 -23 -172 -1 0 19 -56 19
-64 -1 -6 -15 -56 -21 -56 -7 0 7 37 121 55 170 2 6 17 12 33 12 27 0 32 -6
52 -60z m436 15 c18 -25 15 -136 -3 -143 -10 -3 -13 13 -13 55 0 66 -9 87 -36
81 -16 -3 -19 -14 -22 -71 -2 -51 -6 -67 -17 -67 -12 0 -15 16 -15 78 0 43 2
81 4 83 3 3 24 4 46 4 30 0 46 -6 56 -20z m-121 -105 c4 -6 1 -17 -5 -26 -10
-11 -16 -12 -26 -3 -11 9 -11 15 -3 25 14 17 25 18 34 4z"/>
<path d="M882 658 c-20 -20 -14 -28 23 -28 19 0 35 4 35 8 0 12 -22 32 -35 32
-6 0 -16 -5 -23 -12z"/>
<path d="M450 671 c0 -5 13 -12 30 -16 16 -4 32 -11 35 -16 9 -14 25 -11 25 6
0 10 -10 15 -30 15 -16 0 -30 5 -30 10 0 6 -7 10 -15 10 -8 0 -15 -4 -15 -9z"/>
<path d="M590 660 c0 -15 5 -20 18 -18 9 2 17 10 17 18 0 8 -8 16 -17 18 -13
2 -18 -3 -18 -18z"/>
<path d="M310 633 c0 -13 5 -23 10 -23 13 0 13 11 0 30 -8 12 -10 11 -10 -7z"/>
</g>
</svg>
