<svg fill="#000000" xmlns="http://www.w3.org/2000/svg"  viewBox="0 0 32 32" width="128px" height="128px"><path d="M16.892,10.409l0.032,0.256c0.09,0.708,0.155,1.422,0.219,2.129c0.026,0.282,0.051,0.557,0.071,0.839	c0.013,0.216,0.251,0.328,0.425,0.203c0.219-0.164,0.444-0.328,0.676-0.485c0.58-0.4,1.153-0.799,1.745-1.186l0.219-0.138	C19.358,11.176,18.186,10.593,16.892,10.409z M16.892,10.409l0.032,0.256c0.09,0.708,0.155,1.422,0.219,2.129	c0.026,0.282,0.051,0.557,0.071,0.839c0.013,0.216,0.251,0.328,0.425,0.203c0.219-0.164,0.444-0.328,0.676-0.485	c0.58-0.4,1.153-0.799,1.745-1.186l0.219-0.138C19.358,11.176,18.186,10.593,16.892,10.409z M16.892,10.409l0.032,0.256	c0.09,0.708,0.155,1.422,0.219,2.129c0.026,0.282,0.051,0.557,0.071,0.839c0.013,0.216,0.251,0.328,0.425,0.203	c0.219-0.164,0.444-0.328,0.676-0.485c0.58-0.4,1.153-0.799,1.745-1.186l0.219-0.138C19.358,11.176,18.186,10.593,16.892,10.409z M16.892,10.409l0.032,0.256c0.09,0.708,0.155,1.422,0.219,2.129c0.026,0.282,0.051,0.557,0.071,0.839	c0.013,0.216,0.251,0.328,0.425,0.203c0.219-0.164,0.444-0.328,0.676-0.485c0.58-0.4,1.153-0.799,1.745-1.186l0.219-0.138	C19.358,11.176,18.186,10.593,16.892,10.409z M16.892,10.409l0.032,0.256c0.09,0.708,0.155,1.422,0.219,2.129	c0.026,0.282,0.051,0.557,0.071,0.839c0.013,0.216,0.251,0.328,0.425,0.203c0.219-0.164,0.444-0.328,0.676-0.485	c0.58-0.4,1.153-0.799,1.745-1.186l0.219-0.138C19.358,11.176,18.186,10.593,16.892,10.409z M21.464,13.482l-0.174,0.19	c-0.483,0.524-0.979,1.029-1.475,1.533c-0.316,0.328-0.657,0.642-0.985,0.963c0.438,0.111,0.876,0.229,1.314,0.36	c0.676,0.197,1.346,0.387,2.016,0.609l0.238,0.079c0.006-0.105,0.006-0.216,0.006-0.328C22.405,15.638,22.063,14.472,21.464,13.482z M21.464,13.482l-0.174,0.19c-0.483,0.524-0.979,1.029-1.475,1.533c-0.316,0.328-0.657,0.642-0.985,0.963	c0.438,0.111,0.876,0.229,1.314,0.36c0.676,0.197,1.346,0.387,2.016,0.609l0.238,0.079c0.006-0.105,0.006-0.216,0.006-0.328	C22.405,15.638,22.063,14.472,21.464,13.482z M16.892,10.409l0.032,0.256c0.09,0.708,0.155,1.422,0.219,2.129	c0.026,0.282,0.051,0.557,0.071,0.839c0.013,0.216,0.251,0.328,0.425,0.203c0.219-0.164,0.444-0.328,0.676-0.485	c0.58-0.4,1.153-0.799,1.745-1.186l0.219-0.138C19.358,11.176,18.186,10.593,16.892,10.409z M16.892,10.409l0.032,0.256	c0.09,0.708,0.155,1.422,0.219,2.129c0.026,0.282,0.051,0.557,0.071,0.839c0.013,0.216,0.251,0.328,0.425,0.203	c0.219-0.164,0.444-0.328,0.676-0.485c0.58-0.4,1.153-0.799,1.745-1.186l0.219-0.138C19.358,11.176,18.186,10.593,16.892,10.409z M21.806,19.065c-0.702-0.046-1.398-0.111-2.1-0.177c-0.303-0.026-0.599-0.059-0.902-0.092c-0.193-0.026-0.348,0.17-0.277,0.36	c0.11,0.295,0.213,0.59,0.316,0.891c0.225,0.668,0.457,1.343,0.67,2.025l0.071,0.236c1.121-0.78,1.99-1.907,2.447-3.23	L21.806,19.065z M21.464,13.482l-0.174,0.19c-0.483,0.524-0.979,1.029-1.475,1.533c-0.316,0.328-0.657,0.642-0.985,0.963	c0.438,0.111,0.876,0.229,1.314,0.36c0.676,0.197,1.346,0.387,2.016,0.609l0.238,0.079c0.006-0.105,0.006-0.216,0.006-0.328	C22.405,15.638,22.063,14.472,21.464,13.482z M21.464,13.482l-0.174,0.19c-0.483,0.524-0.979,1.029-1.475,1.533	c-0.316,0.328-0.657,0.642-0.985,0.963c0.438,0.111,0.876,0.229,1.314,0.36c0.676,0.197,1.346,0.387,2.016,0.609l0.238,0.079	c0.006-0.105,0.006-0.216,0.006-0.328C22.405,15.638,22.063,14.472,21.464,13.482z M21.806,19.065	c-0.702-0.046-1.398-0.111-2.1-0.177c-0.303-0.026-0.599-0.059-0.902-0.092c-0.193-0.026-0.348,0.17-0.277,0.36	c0.11,0.295,0.213,0.59,0.316,0.891c0.225,0.668,0.457,1.343,0.67,2.025l0.071,0.236c1.121-0.78,1.99-1.907,2.447-3.23	L21.806,19.065z M16.892,10.409l0.032,0.256c0.09,0.708,0.155,1.422,0.219,2.129c0.026,0.282,0.051,0.557,0.071,0.839	c0.013,0.216,0.251,0.328,0.425,0.203c0.219-0.164,0.444-0.328,0.676-0.485c0.58-0.4,1.153-0.799,1.745-1.186l0.219-0.138	C19.358,11.176,18.186,10.593,16.892,10.409z M16.892,10.409l0.032,0.256c0.09,0.708,0.155,1.422,0.219,2.129	c0.026,0.282,0.051,0.557,0.071,0.839c0.013,0.216,0.251,0.328,0.425,0.203c0.219-0.164,0.444-0.328,0.676-0.485	c0.58-0.4,1.153-0.799,1.745-1.186l0.219-0.138C19.358,11.176,18.186,10.593,16.892,10.409z M21.806,19.065	c-0.702-0.046-1.398-0.111-2.1-0.177c-0.303-0.026-0.599-0.059-0.902-0.092c-0.193-0.026-0.348,0.17-0.277,0.36	c0.11,0.295,0.213,0.59,0.316,0.891c0.225,0.668,0.457,1.343,0.67,2.025l0.071,0.236c1.121-0.78,1.99-1.907,2.447-3.23	L21.806,19.065z M21.464,13.482l-0.174,0.19c-0.483,0.524-0.979,1.029-1.475,1.533c-0.316,0.328-0.657,0.642-0.985,0.963	c0.438,0.111,0.876,0.229,1.314,0.36c0.676,0.197,1.346,0.387,2.016,0.609l0.238,0.079c0.006-0.105,0.006-0.216,0.006-0.328	C22.405,15.638,22.063,14.472,21.464,13.482z M21.464,13.482l-0.174,0.19c-0.483,0.524-0.979,1.029-1.475,1.533	c-0.316,0.328-0.657,0.642-0.985,0.963c0.438,0.111,0.876,0.229,1.314,0.36c0.676,0.197,1.346,0.387,2.016,0.609l0.238,0.079	c0.006-0.105,0.006-0.216,0.006-0.328C22.405,15.638,22.063,14.472,21.464,13.482z M21.806,19.065	c-0.702-0.046-1.398-0.111-2.1-0.177c-0.303-0.026-0.599-0.059-0.902-0.092c-0.193-0.026-0.348,0.17-0.277,0.36	c0.11,0.295,0.213,0.59,0.316,0.891c0.225,0.668,0.457,1.343,0.67,2.025l0.071,0.236c1.121-0.78,1.99-1.907,2.447-3.23	L21.806,19.065z M16.892,10.409l0.032,0.256c0.09,0.708,0.155,1.422,0.219,2.129c0.026,0.282,0.051,0.557,0.071,0.839	c0.013,0.216,0.251,0.328,0.425,0.203c0.219-0.164,0.444-0.328,0.676-0.485c0.58-0.4,1.153-0.799,1.745-1.186l0.219-0.138	C19.358,11.176,18.186,10.593,16.892,10.409z M17.761,22.884c-0.374-0.603-0.721-1.225-1.069-1.841	c-0.155-0.269-0.303-0.537-0.444-0.812c-0.103-0.19-0.367-0.19-0.47,0c-0.148,0.282-0.303,0.557-0.464,0.826	c-0.354,0.616-0.708,1.232-1.082,1.835l-0.161,0.262c0.599,0.19,1.237,0.288,1.894,0.288c0.676,0,1.333-0.105,1.945-0.308	L17.761,22.884z M16.892,10.409l0.032,0.256c0.09,0.708,0.155,1.422,0.219,2.129c0.026,0.282,0.051,0.557,0.071,0.839	c0.013,0.216,0.251,0.328,0.425,0.203c0.219-0.164,0.444-0.328,0.676-0.485c0.58-0.4,1.153-0.799,1.745-1.186l0.219-0.138	C19.358,11.176,18.186,10.593,16.892,10.409z M21.806,19.065c-0.702-0.046-1.398-0.111-2.1-0.177	c-0.303-0.026-0.599-0.059-0.902-0.092c-0.193-0.026-0.348,0.17-0.277,0.36c0.11,0.295,0.213,0.59,0.316,0.891	c0.225,0.668,0.457,1.343,0.67,2.025l0.071,0.236c1.121-0.78,1.99-1.907,2.447-3.23L21.806,19.065z M21.464,13.482l-0.174,0.19	c-0.483,0.524-0.979,1.029-1.475,1.533c-0.316,0.328-0.657,0.642-0.985,0.963c0.438,0.111,0.876,0.229,1.314,0.36	c0.676,0.197,1.346,0.387,2.016,0.609l0.238,0.079c0.006-0.105,0.006-0.216,0.006-0.328C22.405,15.638,22.063,14.472,21.464,13.482z M21.464,13.482l-0.174,0.19c-0.483,0.524-0.979,1.029-1.475,1.533c-0.316,0.328-0.657,0.642-0.985,0.963	c0.438,0.111,0.876,0.229,1.314,0.36c0.676,0.197,1.346,0.387,2.016,0.609l0.238,0.079c0.006-0.105,0.006-0.216,0.006-0.328	C22.405,15.638,22.063,14.472,21.464,13.482z M21.806,19.065c-0.702-0.046-1.398-0.111-2.1-0.177	c-0.303-0.026-0.599-0.059-0.902-0.092c-0.193-0.026-0.348,0.17-0.277,0.36c0.11,0.295,0.213,0.59,0.316,0.891	c0.225,0.668,0.457,1.343,0.67,2.025l0.071,0.236c1.121-0.78,1.99-1.907,2.447-3.23L21.806,19.065z M16.892,10.409l0.032,0.256	c0.09,0.708,0.155,1.422,0.219,2.129c0.026,0.282,0.051,0.557,0.071,0.839c0.013,0.216,0.251,0.328,0.425,0.203	c0.219-0.164,0.444-0.328,0.676-0.485c0.58-0.4,1.153-0.799,1.745-1.186l0.219-0.138C19.358,11.176,18.186,10.593,16.892,10.409z M17.761,22.884c-0.374-0.603-0.721-1.225-1.069-1.841c-0.155-0.269-0.303-0.537-0.444-0.812c-0.103-0.19-0.367-0.19-0.47,0	c-0.148,0.282-0.303,0.557-0.464,0.826c-0.354,0.616-0.708,1.232-1.082,1.835l-0.161,0.262c0.599,0.19,1.237,0.288,1.894,0.288	c0.676,0,1.333-0.105,1.945-0.308L17.761,22.884z M13.24,18.704c-0.303,0.039-0.599,0.085-0.902,0.118	c-0.702,0.085-1.391,0.17-2.093,0.236l-0.348,0.033c0.47,1.337,1.359,2.477,2.499,3.25l0.09-0.275	c0.219-0.681,0.451-1.35,0.689-2.025c0.11-0.328,0.225-0.649,0.348-0.976C13.6,18.875,13.439,18.672,13.24,18.704z M17.761,22.884	c-0.374-0.603-0.721-1.225-1.069-1.841c-0.155-0.269-0.303-0.537-0.444-0.812c-0.103-0.19-0.367-0.19-0.47,0	c-0.148,0.282-0.303,0.557-0.464,0.826c-0.354,0.616-0.708,1.232-1.082,1.835l-0.161,0.262c0.599,0.19,1.237,0.288,1.894,0.288	c0.676,0,1.333-0.105,1.945-0.308L17.761,22.884z M16.892,10.409l0.032,0.256c0.09,0.708,0.155,1.422,0.219,2.129	c0.026,0.282,0.051,0.557,0.071,0.839c0.013,0.216,0.251,0.328,0.425,0.203c0.219-0.164,0.444-0.328,0.676-0.485	c0.58-0.4,1.153-0.799,1.745-1.186l0.219-0.138C19.358,11.176,18.186,10.593,16.892,10.409z M21.806,19.065	c-0.702-0.046-1.398-0.111-2.1-0.177c-0.303-0.026-0.599-0.059-0.902-0.092c-0.193-0.026-0.348,0.17-0.277,0.36	c0.11,0.295,0.213,0.59,0.316,0.891c0.225,0.668,0.457,1.343,0.67,2.025l0.071,0.236c1.121-0.78,1.99-1.907,2.447-3.23	L21.806,19.065z M21.464,13.482l-0.174,0.19c-0.483,0.524-0.979,1.029-1.475,1.533c-0.316,0.328-0.657,0.642-0.985,0.963	c0.438,0.111,0.876,0.229,1.314,0.36c0.676,0.197,1.346,0.387,2.016,0.609l0.238,0.079c0.006-0.105,0.006-0.216,0.006-0.328	C22.405,15.638,22.063,14.472,21.464,13.482z M21.464,13.482l-0.174,0.19c-0.483,0.524-0.979,1.029-1.475,1.533	c-0.316,0.328-0.657,0.642-0.985,0.963c0.438,0.111,0.876,0.229,1.314,0.36c0.676,0.197,1.346,0.387,2.016,0.609l0.238,0.079	c0.006-0.105,0.006-0.216,0.006-0.328C22.405,15.638,22.063,14.472,21.464,13.482z M21.806,19.065	c-0.702-0.046-1.398-0.111-2.1-0.177c-0.303-0.026-0.599-0.059-0.902-0.092c-0.193-0.026-0.348,0.17-0.277,0.36	c0.11,0.295,0.213,0.59,0.316,0.891c0.225,0.668,0.457,1.343,0.67,2.025l0.071,0.236c1.121-0.78,1.99-1.907,2.447-3.23	L21.806,19.065z M16.892,10.409l0.032,0.256c0.09,0.708,0.155,1.422,0.219,2.129c0.026,0.282,0.051,0.557,0.071,0.839	c0.013,0.216,0.251,0.328,0.425,0.203c0.219-0.164,0.444-0.328,0.676-0.485c0.58-0.4,1.153-0.799,1.745-1.186l0.219-0.138	C19.358,11.176,18.186,10.593,16.892,10.409z M17.761,22.884c-0.374-0.603-0.721-1.225-1.069-1.841	c-0.155-0.269-0.303-0.537-0.444-0.812c-0.103-0.19-0.367-0.19-0.47,0c-0.148,0.282-0.303,0.557-0.464,0.826	c-0.354,0.616-0.708,1.232-1.082,1.835l-0.161,0.262c0.599,0.19,1.237,0.288,1.894,0.288c0.676,0,1.333-0.105,1.945-0.308	L17.761,22.884z M13.24,18.704c-0.303,0.039-0.599,0.085-0.902,0.118c-0.702,0.085-1.391,0.17-2.093,0.236l-0.348,0.033	c0.47,1.337,1.359,2.477,2.499,3.25l0.09-0.275c0.219-0.681,0.451-1.35,0.689-2.025c0.11-0.328,0.225-0.649,0.348-0.976	C13.6,18.875,13.439,18.672,13.24,18.704z M13.24,18.704c-0.303,0.039-0.599,0.085-0.902,0.118c-0.702,0.085-1.391,0.17-2.093,0.236	l-0.348,0.033c0.47,1.337,1.359,2.477,2.499,3.25l0.09-0.275c0.219-0.681,0.451-1.35,0.689-2.025	c0.11-0.328,0.225-0.649,0.348-0.976C13.6,18.875,13.439,18.672,13.24,18.704z M17.761,22.884c-0.374-0.603-0.721-1.225-1.069-1.841	c-0.155-0.269-0.303-0.537-0.444-0.812c-0.103-0.19-0.367-0.19-0.47,0c-0.148,0.282-0.303,0.557-0.464,0.826	c-0.354,0.616-0.708,1.232-1.082,1.835l-0.161,0.262c0.599,0.19,1.237,0.288,1.894,0.288c0.676,0,1.333-0.105,1.945-0.308	L17.761,22.884z M16.892,10.409l0.032,0.256c0.09,0.708,0.155,1.422,0.219,2.129c0.026,0.282,0.051,0.557,0.071,0.839	c0.013,0.216,0.251,0.328,0.425,0.203c0.219-0.164,0.444-0.328,0.676-0.485c0.58-0.4,1.153-0.799,1.745-1.186l0.219-0.138	C19.358,11.176,18.186,10.593,16.892,10.409z M21.806,19.065c-0.702-0.046-1.398-0.111-2.1-0.177	c-0.303-0.026-0.599-0.059-0.902-0.092c-0.193-0.026-0.348,0.17-0.277,0.36c0.11,0.295,0.213,0.59,0.316,0.891	c0.225,0.668,0.457,1.343,0.67,2.025l0.071,0.236c1.121-0.78,1.99-1.907,2.447-3.23L21.806,19.065z M21.464,13.482l-0.174,0.19	c-0.483,0.524-0.979,1.029-1.475,1.533c-0.316,0.328-0.657,0.642-0.985,0.963c0.438,0.111,0.876,0.229,1.314,0.36	c0.676,0.197,1.346,0.387,2.016,0.609l0.238,0.079c0.006-0.105,0.006-0.216,0.006-0.328C22.405,15.638,22.063,14.472,21.464,13.482z M21.464,13.482l-0.174,0.19c-0.483,0.524-0.979,1.029-1.475,1.533c-0.316,0.328-0.657,0.642-0.985,0.963	c0.438,0.111,0.876,0.229,1.314,0.36c0.676,0.197,1.346,0.387,2.016,0.609l0.238,0.079c0.006-0.105,0.006-0.216,0.006-0.328	C22.405,15.638,22.063,14.472,21.464,13.482z M21.806,19.065c-0.702-0.046-1.398-0.111-2.1-0.177	c-0.303-0.026-0.599-0.059-0.902-0.092c-0.193-0.026-0.348,0.17-0.277,0.36c0.11,0.295,0.213,0.59,0.316,0.891	c0.225,0.668,0.457,1.343,0.67,2.025l0.071,0.236c1.121-0.78,1.99-1.907,2.447-3.23L21.806,19.065z M16.892,10.409l0.032,0.256	c0.09,0.708,0.155,1.422,0.219,2.129c0.026,0.282,0.051,0.557,0.071,0.839c0.013,0.216,0.251,0.328,0.425,0.203	c0.219-0.164,0.444-0.328,0.676-0.485c0.58-0.4,1.153-0.799,1.745-1.186l0.219-0.138C19.358,11.176,18.186,10.593,16.892,10.409z M17.761,22.884c-0.374-0.603-0.721-1.225-1.069-1.841c-0.155-0.269-0.303-0.537-0.444-0.812c-0.103-0.19-0.367-0.19-0.47,0	c-0.148,0.282-0.303,0.557-0.464,0.826c-0.354,0.616-0.708,1.232-1.082,1.835l-0.161,0.262c0.599,0.19,1.237,0.288,1.894,0.288	c0.676,0,1.333-0.105,1.945-0.308L17.761,22.884z M13.24,18.704c-0.303,0.039-0.599,0.085-0.902,0.118	c-0.702,0.085-1.391,0.17-2.093,0.236l-0.348,0.033c0.47,1.337,1.359,2.477,2.499,3.25l0.09-0.275	c0.219-0.681,0.451-1.35,0.689-2.025c0.11-0.328,0.225-0.649,0.348-0.976C13.6,18.875,13.439,18.672,13.24,18.704z M12.879,15.717	c-0.219-0.203-0.432-0.406-0.644-0.622c-0.502-0.505-0.998-1.002-1.488-1.52l-0.206-0.216c-0.644,1.016-1.018,2.228-1.018,3.532	c0,0.124,0.006,0.242,0.006,0.36l0.303-0.105c0.663-0.242,1.333-0.452,1.997-0.675c0.316-0.105,0.631-0.197,0.947-0.295	C12.976,16.116,13.034,15.861,12.879,15.717z M13.24,18.704c-0.303,0.039-0.599,0.085-0.902,0.118	c-0.702,0.085-1.391,0.17-2.093,0.236l-0.348,0.033c0.47,1.337,1.359,2.477,2.499,3.25l0.09-0.275	c0.219-0.681,0.451-1.35,0.689-2.025c0.11-0.328,0.225-0.649,0.348-0.976C13.6,18.875,13.439,18.672,13.24,18.704z M17.761,22.884	c-0.374-0.603-0.721-1.225-1.069-1.841c-0.155-0.269-0.303-0.537-0.444-0.812c-0.103-0.19-0.367-0.19-0.47,0	c-0.148,0.282-0.303,0.557-0.464,0.826c-0.354,0.616-0.708,1.232-1.082,1.835l-0.161,0.262c0.599,0.19,1.237,0.288,1.894,0.288	c0.676,0,1.333-0.105,1.945-0.308L17.761,22.884z M16.892,10.409l0.032,0.256c0.09,0.708,0.155,1.422,0.219,2.129	c0.026,0.282,0.051,0.557,0.071,0.839c0.013,0.216,0.251,0.328,0.425,0.203c0.219-0.164,0.444-0.328,0.676-0.485	c0.58-0.4,1.153-0.799,1.745-1.186l0.219-0.138C19.358,11.176,18.186,10.593,16.892,10.409z M21.806,19.065	c-0.702-0.046-1.398-0.111-2.1-0.177c-0.303-0.026-0.599-0.059-0.902-0.092c-0.193-0.026-0.348,0.17-0.277,0.36	c0.11,0.295,0.213,0.59,0.316,0.891c0.225,0.668,0.457,1.343,0.67,2.025l0.071,0.236c1.121-0.78,1.99-1.907,2.447-3.23	L21.806,19.065z M21.464,13.482l-0.174,0.19c-0.483,0.524-0.979,1.029-1.475,1.533c-0.316,0.328-0.657,0.642-0.985,0.963	c0.438,0.111,0.876,0.229,1.314,0.36c0.676,0.197,1.346,0.387,2.016,0.609l0.238,0.079c0.006-0.105,0.006-0.216,0.006-0.328	C22.405,15.638,22.063,14.472,21.464,13.482z M21.464,13.482l-0.174,0.19c-0.483,0.524-0.979,1.029-1.475,1.533	c-0.316,0.328-0.657,0.642-0.985,0.963c0.438,0.111,0.876,0.229,1.314,0.36c0.676,0.197,1.346,0.387,2.016,0.609l0.238,0.079	c0.006-0.105,0.006-0.216,0.006-0.328C22.405,15.638,22.063,14.472,21.464,13.482z M19.706,18.888	c-0.303-0.026-0.599-0.059-0.902-0.092c-0.193-0.026-0.348,0.17-0.277,0.36c0.11,0.295,0.213,0.59,0.316,0.891	c0.225,0.668,0.457,1.343,0.67,2.025l0.071,0.236c1.121-0.78,1.99-1.907,2.447-3.23l-0.225-0.013	C21.104,19.019,20.408,18.953,19.706,18.888z M20.279,12.028c-0.921-0.852-2.093-1.435-3.388-1.618l0.032,0.256	c0.09,0.708,0.155,1.422,0.219,2.129c0.026,0.282,0.051,0.557,0.071,0.839c0.013,0.216,0.251,0.328,0.425,0.203	c0.219-0.164,0.444-0.328,0.676-0.485c0.58-0.4,1.153-0.799,1.745-1.186L20.279,12.028z M16.692,21.043	c-0.155-0.269-0.303-0.537-0.444-0.812c-0.103-0.19-0.367-0.19-0.47,0c-0.148,0.282-0.303,0.557-0.464,0.826	c-0.354,0.616-0.708,1.232-1.082,1.835l-0.161,0.262c0.599,0.19,1.237,0.288,1.894,0.288c0.676,0,1.333-0.105,1.945-0.308	l-0.148-0.249C17.388,22.282,17.04,21.659,16.692,21.043z M13.24,18.704c-0.303,0.039-0.599,0.085-0.902,0.118	c-0.702,0.085-1.391,0.17-2.093,0.236l-0.348,0.033c0.47,1.337,1.359,2.477,2.499,3.25l0.09-0.275	c0.219-0.681,0.451-1.35,0.689-2.025c0.11-0.328,0.225-0.649,0.348-0.976C13.6,18.875,13.439,18.672,13.24,18.704z M12.776,16.175	c0.2-0.059,0.258-0.314,0.103-0.459c-0.219-0.203-0.432-0.406-0.644-0.622c-0.502-0.505-0.998-1.002-1.488-1.52l-0.206-0.216	c-0.644,1.016-1.018,2.228-1.018,3.532c0,0.124,0.006,0.242,0.006,0.36l0.303-0.105c0.663-0.242,1.333-0.452,1.997-0.675	C12.145,16.365,12.46,16.274,12.776,16.175z M29.96,19.17l-2.46-10.994c-0.052-0.258-0.104-0.517-0.156-0.775	c-0.24-0.115-0.48-0.23-0.72-0.345l-9.957-4.888c-0.234-0.116-0.468-0.232-0.702-0.348c-0.234,0.116-0.468,0.232-0.702,0.348	L5.305,7.055C5.082,7.147,4.858,7.24,4.635,7.332C4.566,7.613,4.498,7.894,4.429,8.175L1.969,19.17	c-0.053,0.245-0.107,0.489-0.16,0.734c0.156,0.218,0.313,0.437,0.469,0.655l6.891,8.819c0.168,0.204,0.337,0.408,0.505,0.612	c0.255,0.003,0.509,0.007,0.764,0.01H21.49c0.259-0.003,0.519-0.007,0.778-0.01c0.164-0.204,0.327-0.408,0.491-0.612l6.891-8.819	c0.161-0.204,0.322-0.408,0.484-0.612C30.076,19.687,30.018,19.428,29.96,19.17z M26.52,19.628c-0.193,0.046-0.386,0-0.541-0.098	c-0.316-0.216-0.651-0.334-0.985-0.432c-0.167-0.046-0.341-0.085-0.509-0.111c-0.167-0.052-0.361,0-0.554,0.092	c-0.193,0.111-0.367,0.092-0.547,0.079h-0.019c-0.554,1.867-1.771,3.446-3.381,4.449v0.007c0.052,0.17,0.109,0.334,0.058,0.557	c-0.045,0.216-0.052,0.413,0.039,0.57c0.071,0.157,0.148,0.321,0.232,0.472c0.174,0.308,0.367,0.616,0.651,0.871	c0.283,0.269,0.303,0.714,0.045,1.009c-0.264,0.288-0.702,0.308-0.992,0.046c-0.148-0.138-0.225-0.321-0.225-0.511	c-0.013-0.387-0.109-0.727-0.225-1.068c-0.058-0.164-0.122-0.328-0.2-0.491c-0.058-0.17-0.213-0.288-0.399-0.4	c-0.18-0.098-0.27-0.236-0.361-0.387c-0.824,0.308-1.713,0.472-2.641,0.472c-0.915,0-1.791-0.164-2.602-0.459	c-0.077,0.144-0.167,0.275-0.348,0.373c-0.187,0.105-0.341,0.229-0.399,0.4c-0.077,0.157-0.148,0.321-0.206,0.485	c-0.116,0.341-0.219,0.681-0.225,1.068c-0.013,0.393-0.341,0.701-0.728,0.688c-0.386-0.013-0.689-0.341-0.676-0.734	c0.006-0.203,0.097-0.38,0.232-0.504c0.283-0.262,0.477-0.564,0.657-0.865c0.084-0.157,0.161-0.315,0.232-0.478	c0.09-0.151,0.084-0.354,0.045-0.57c-0.045-0.203,0-0.367,0.052-0.518c-1.617-0.989-2.853-2.562-3.42-4.429	c-0.148,0.013-0.29,0.013-0.457-0.072c-0.2-0.085-0.386-0.138-0.554-0.079c-0.174,0.033-0.341,0.079-0.509,0.131	c-0.335,0.111-0.663,0.236-0.973,0.459c-0.316,0.229-0.754,0.151-0.979-0.17c-0.219-0.321-0.148-0.767,0.167-0.989	c0.161-0.118,0.361-0.157,0.541-0.124c0.367,0.079,0.721,0.052,1.069,0.007c0.174-0.02,0.348-0.052,0.515-0.098	c0.174-0.013,0.328-0.144,0.47-0.308c0.122-0.144,0.264-0.203,0.406-0.256c-0.026-0.269-0.039-0.544-0.039-0.819	c0-1.677,0.515-3.23,1.398-4.508c-0.116-0.118-0.225-0.236-0.27-0.446c-0.058-0.21-0.135-0.393-0.283-0.491	c-0.135-0.118-0.27-0.223-0.412-0.321c-0.296-0.197-0.599-0.38-0.96-0.491c-0.374-0.105-0.593-0.505-0.483-0.878	c0.109-0.38,0.496-0.596,0.87-0.491c0.187,0.059,0.341,0.19,0.425,0.354c0.174,0.341,0.412,0.609,0.663,0.858	c0.122,0.124,0.258,0.242,0.393,0.347c0.122,0.131,0.316,0.17,0.528,0.183c0.225,0.007,0.367,0.105,0.515,0.203l0.006,0.007	c1.211-1.192,2.808-1.979,4.579-2.149c0.019-0.177,0.032-0.354,0.167-0.531c0.129-0.177,0.219-0.354,0.2-0.531	c0.006-0.177,0-0.354-0.013-0.537c-0.039-0.354-0.09-0.708-0.238-1.061c-0.155-0.36,0.013-0.78,0.367-0.937	c0.354-0.151,0.766,0.013,0.921,0.373c0.077,0.19,0.071,0.393,0,0.563c-0.148,0.354-0.2,0.708-0.238,1.061	c-0.013,0.183-0.019,0.36-0.013,0.537c-0.019,0.177,0.071,0.354,0.2,0.531c0.135,0.177,0.148,0.354,0.167,0.531	c1.816,0.177,3.452,0.996,4.676,2.241c0.148-0.098,0.29-0.203,0.515-0.21c0.213-0.013,0.406-0.052,0.528-0.183	c0.135-0.111,0.264-0.229,0.393-0.354c0.245-0.249,0.483-0.518,0.657-0.858c0.174-0.354,0.599-0.491,0.94-0.308	c0.348,0.177,0.483,0.609,0.303,0.957c-0.09,0.183-0.245,0.308-0.425,0.36c-0.361,0.105-0.663,0.295-0.953,0.491	c-0.142,0.105-0.283,0.21-0.412,0.328c-0.148,0.098-0.225,0.282-0.283,0.491c-0.045,0.223-0.167,0.347-0.29,0.478	c0.837,1.251,1.32,2.765,1.32,4.39c0,0.249-0.013,0.498-0.032,0.74h0.006c0.167,0.052,0.335,0.098,0.483,0.275	c0.148,0.157,0.303,0.275,0.477,0.288c0.174,0.039,0.341,0.066,0.515,0.085c0.354,0.033,0.702,0.046,1.076-0.039	c0.38-0.085,0.754,0.157,0.837,0.544C27.139,19.163,26.9,19.543,26.52,19.628z M21.291,13.672c-0.483,0.524-0.979,1.029-1.475,1.533	c-0.316,0.328-0.657,0.642-0.985,0.963c0.438,0.111,0.876,0.229,1.314,0.36c0.676,0.197,1.346,0.387,2.016,0.609l0.238,0.079	c0.006-0.105,0.006-0.216,0.006-0.328c0-1.251-0.341-2.418-0.94-3.407L21.291,13.672z M19.706,18.888	c-0.303-0.026-0.599-0.059-0.902-0.092c-0.193-0.026-0.348,0.17-0.277,0.36c0.11,0.295,0.213,0.59,0.316,0.891	c0.225,0.668,0.457,1.343,0.67,2.025l0.071,0.236c1.121-0.78,1.99-1.907,2.447-3.23l-0.225-0.013	C21.104,19.019,20.408,18.953,19.706,18.888z M20.279,12.028c-0.921-0.852-2.093-1.435-3.388-1.618l0.032,0.256	c0.09,0.708,0.155,1.422,0.219,2.129c0.026,0.282,0.051,0.557,0.071,0.839c0.013,0.216,0.251,0.328,0.425,0.203	c0.219-0.164,0.444-0.328,0.676-0.485c0.58-0.4,1.153-0.799,1.745-1.186L20.279,12.028z M16.692,21.043	c-0.155-0.269-0.303-0.537-0.444-0.812c-0.103-0.19-0.367-0.19-0.47,0c-0.148,0.282-0.303,0.557-0.464,0.826	c-0.354,0.616-0.708,1.232-1.082,1.835l-0.161,0.262c0.599,0.19,1.237,0.288,1.894,0.288c0.676,0,1.333-0.105,1.945-0.308	l-0.148-0.249C17.388,22.282,17.04,21.659,16.692,21.043z M14.786,12.794c0.064-0.708,0.129-1.422,0.219-2.129l0.032-0.256	c-1.243,0.177-2.37,0.721-3.272,1.52l0.2,0.124c0.599,0.38,1.179,0.78,1.758,1.179c0.335,0.216,0.651,0.459,0.966,0.688	C14.715,13.548,14.747,13.168,14.786,12.794z M13.24,18.704c-0.303,0.039-0.599,0.085-0.902,0.118	c-0.702,0.085-1.391,0.17-2.093,0.236l-0.348,0.033c0.47,1.337,1.359,2.477,2.499,3.25l0.09-0.275	c0.219-0.681,0.451-1.35,0.689-2.025c0.11-0.328,0.225-0.649,0.348-0.976C13.6,18.875,13.439,18.672,13.24,18.704z M12.776,16.175	c0.2-0.059,0.258-0.314,0.103-0.459c-0.219-0.203-0.432-0.406-0.644-0.622c-0.502-0.505-0.998-1.002-1.488-1.52l-0.206-0.216	c-0.644,1.016-1.018,2.228-1.018,3.532c0,0.124,0.006,0.242,0.006,0.36l0.303-0.105c0.663-0.242,1.333-0.452,1.997-0.675	C12.145,16.365,12.46,16.274,12.776,16.175z M12.879,15.717c-0.219-0.203-0.432-0.406-0.644-0.622	c-0.502-0.505-0.998-1.002-1.488-1.52l-0.206-0.216c-0.644,1.016-1.018,2.228-1.018,3.532c0,0.124,0.006,0.242,0.006,0.36	l0.303-0.105c0.663-0.242,1.333-0.452,1.997-0.675c0.316-0.105,0.631-0.197,0.947-0.295C12.976,16.116,13.034,15.861,12.879,15.717z M13.24,18.704c-0.303,0.039-0.599,0.085-0.902,0.118c-0.702,0.085-1.391,0.17-2.093,0.236l-0.348,0.033	c0.47,1.337,1.359,2.477,2.499,3.25l0.09-0.275c0.219-0.681,0.451-1.35,0.689-2.025c0.11-0.328,0.225-0.649,0.348-0.976	C13.6,18.875,13.439,18.672,13.24,18.704z M17.761,22.884c-0.374-0.603-0.721-1.225-1.069-1.841	c-0.155-0.269-0.303-0.537-0.444-0.812c-0.103-0.19-0.367-0.19-0.47,0c-0.148,0.282-0.303,0.557-0.464,0.826	c-0.354,0.616-0.708,1.232-1.082,1.835l-0.161,0.262c0.599,0.19,1.237,0.288,1.894,0.288c0.676,0,1.333-0.105,1.945-0.308	L17.761,22.884z M16.892,10.409l0.032,0.256c0.09,0.708,0.155,1.422,0.219,2.129c0.026,0.282,0.051,0.557,0.071,0.839	c0.013,0.216,0.251,0.328,0.425,0.203c0.219-0.164,0.444-0.328,0.676-0.485c0.58-0.4,1.153-0.799,1.745-1.186l0.219-0.138	C19.358,11.176,18.186,10.593,16.892,10.409z M21.806,19.065c-0.702-0.046-1.398-0.111-2.1-0.177	c-0.303-0.026-0.599-0.059-0.902-0.092c-0.193-0.026-0.348,0.17-0.277,0.36c0.11,0.295,0.213,0.59,0.316,0.891	c0.225,0.668,0.457,1.343,0.67,2.025l0.071,0.236c1.121-0.78,1.99-1.907,2.447-3.23L21.806,19.065z M21.464,13.482l-0.174,0.19	c-0.483,0.524-0.979,1.029-1.475,1.533c-0.316,0.328-0.657,0.642-0.985,0.963c0.438,0.111,0.876,0.229,1.314,0.36	c0.676,0.197,1.346,0.387,2.016,0.609l0.238,0.079c0.006-0.105,0.006-0.216,0.006-0.328C22.405,15.638,22.063,14.472,21.464,13.482z M21.464,13.482l-0.174,0.19c-0.483,0.524-0.979,1.029-1.475,1.533c-0.316,0.328-0.657,0.642-0.985,0.963	c0.438,0.111,0.876,0.229,1.314,0.36c0.676,0.197,1.346,0.387,2.016,0.609l0.238,0.079c0.006-0.105,0.006-0.216,0.006-0.328	C22.405,15.638,22.063,14.472,21.464,13.482z M21.806,19.065c-0.702-0.046-1.398-0.111-2.1-0.177	c-0.303-0.026-0.599-0.059-0.902-0.092c-0.193-0.026-0.348,0.17-0.277,0.36c0.11,0.295,0.213,0.59,0.316,0.891	c0.225,0.668,0.457,1.343,0.67,2.025l0.071,0.236c1.121-0.78,1.99-1.907,2.447-3.23L21.806,19.065z M16.892,10.409l0.032,0.256	c0.09,0.708,0.155,1.422,0.219,2.129c0.026,0.282,0.051,0.557,0.071,0.839c0.013,0.216,0.251,0.328,0.425,0.203	c0.219-0.164,0.444-0.328,0.676-0.485c0.58-0.4,1.153-0.799,1.745-1.186l0.219-0.138C19.358,11.176,18.186,10.593,16.892,10.409z M17.761,22.884c-0.374-0.603-0.721-1.225-1.069-1.841c-0.155-0.269-0.303-0.537-0.444-0.812c-0.103-0.19-0.367-0.19-0.47,0	c-0.148,0.282-0.303,0.557-0.464,0.826c-0.354,0.616-0.708,1.232-1.082,1.835l-0.161,0.262c0.599,0.19,1.237,0.288,1.894,0.288	c0.676,0,1.333-0.105,1.945-0.308L17.761,22.884z M13.24,18.704c-0.303,0.039-0.599,0.085-0.902,0.118	c-0.702,0.085-1.391,0.17-2.093,0.236l-0.348,0.033c0.47,1.337,1.359,2.477,2.499,3.25l0.09-0.275	c0.219-0.681,0.451-1.35,0.689-2.025c0.11-0.328,0.225-0.649,0.348-0.976C13.6,18.875,13.439,18.672,13.24,18.704z M12.879,15.717	c-0.214-0.203-0.429-0.411-0.644-0.622c-0.519-0.51-1.014-1.017-1.488-1.52l-0.206-0.216c-0.644,1.016-1.018,2.228-1.018,3.532	c0,0.124,0.006,0.242,0.006,0.36l0.303-0.105c0.647-0.23,1.312-0.456,1.997-0.675c0.318-0.102,0.634-0.2,0.947-0.295	c0.12-0.056,0.241-0.111,0.361-0.167C13.051,15.911,12.965,15.814,12.879,15.717z M13.24,18.704	c-0.303,0.039-0.599,0.085-0.902,0.118c-0.702,0.085-1.391,0.17-2.093,0.236l-0.348,0.033c0.47,1.337,1.359,2.477,2.499,3.25	l0.09-0.275c0.219-0.681,0.451-1.35,0.689-2.025c0.11-0.328,0.225-0.649,0.348-0.976C13.6,18.875,13.439,18.672,13.24,18.704z M17.761,22.884c-0.374-0.603-0.721-1.225-1.069-1.841c-0.155-0.269-0.303-0.537-0.444-0.812c-0.103-0.19-0.367-0.19-0.47,0	c-0.148,0.282-0.303,0.557-0.464,0.826c-0.354,0.616-0.708,1.232-1.082,1.835l-0.161,0.262c0.599,0.19,1.237,0.288,1.894,0.288	c0.676,0,1.333-0.105,1.945-0.308L17.761,22.884z M16.892,10.409l0.032,0.256c0.09,0.708,0.155,1.422,0.219,2.129	c0.026,0.282,0.051,0.557,0.071,0.839c0.013,0.216,0.251,0.328,0.425,0.203c0.219-0.164,0.444-0.328,0.676-0.485	c0.58-0.4,1.153-0.799,1.745-1.186l0.219-0.138C19.358,11.176,18.186,10.593,16.892,10.409z M21.806,19.065	c-0.702-0.046-1.398-0.111-2.1-0.177c-0.303-0.026-0.599-0.059-0.902-0.092c-0.193-0.026-0.348,0.17-0.277,0.36	c0.11,0.295,0.213,0.59,0.316,0.891c0.225,0.668,0.457,1.343,0.67,2.025l0.071,0.236c1.121-0.78,1.99-1.907,2.447-3.23	L21.806,19.065z M21.464,13.482l-0.174,0.19c-0.483,0.524-0.979,1.029-1.475,1.533c-0.316,0.328-0.657,0.642-0.985,0.963	c0.438,0.111,0.876,0.229,1.314,0.36c0.676,0.197,1.346,0.387,2.016,0.609l0.238,0.079c0.006-0.105,0.006-0.216,0.006-0.328	C22.405,15.638,22.063,14.472,21.464,13.482z M21.464,13.482l-0.174,0.19c-0.483,0.524-0.979,1.029-1.475,1.533	c-0.316,0.328-0.657,0.642-0.985,0.963c0.438,0.111,0.876,0.229,1.314,0.36c0.676,0.197,1.346,0.387,2.016,0.609l0.238,0.079	c0.006-0.105,0.006-0.216,0.006-0.328C22.405,15.638,22.063,14.472,21.464,13.482z M21.806,19.065	c-0.702-0.046-1.398-0.111-2.1-0.177c-0.303-0.026-0.599-0.059-0.902-0.092c-0.193-0.026-0.348,0.17-0.277,0.36	c0.11,0.295,0.213,0.59,0.316,0.891c0.225,0.668,0.457,1.343,0.67,2.025l0.071,0.236c1.121-0.78,1.99-1.907,2.447-3.23	L21.806,19.065z M16.892,10.409l0.032,0.256c0.09,0.708,0.155,1.422,0.219,2.129c0.026,0.282,0.051,0.557,0.071,0.839	c0.013,0.216,0.251,0.328,0.425,0.203c0.219-0.164,0.444-0.328,0.676-0.485c0.58-0.4,1.153-0.799,1.745-1.186l0.219-0.138	C19.358,11.176,18.186,10.593,16.892,10.409z M17.761,22.884c-0.374-0.603-0.721-1.225-1.069-1.841	c-0.155-0.269-0.303-0.537-0.444-0.812c-0.103-0.19-0.367-0.19-0.47,0c-0.148,0.282-0.303,0.557-0.464,0.826	c-0.354,0.616-0.708,1.232-1.082,1.835l-0.161,0.262c0.599,0.19,1.237,0.288,1.894,0.288c0.676,0,1.333-0.105,1.945-0.308	L17.761,22.884z M13.24,18.704c-0.465,0.031-0.806,0.106-0.902,0.118c-0.702,0.085-1.391,0.17-2.093,0.236l-0.348,0.033	c0.47,1.337,1.359,2.477,2.499,3.25l0.09-0.275c0.219-0.681,0.451-1.35,0.689-2.025c0.122-0.346,0.235-0.576,0.348-0.976	c0.044-0.157,0.075-0.288,0.095-0.375C13.533,18.691,13.401,18.694,13.24,18.704z M17.761,22.884	c-0.374-0.603-0.721-1.225-1.069-1.841c-0.155-0.269-0.303-0.537-0.444-0.812c-0.103-0.19-0.367-0.19-0.47,0	c-0.148,0.282-0.303,0.557-0.464,0.826c-0.354,0.616-0.708,1.232-1.082,1.835l-0.161,0.262c0.599,0.19,1.237,0.288,1.894,0.288	c0.676,0,1.333-0.105,1.945-0.308L17.761,22.884z M16.892,10.409l0.032,0.256c0.09,0.708,0.155,1.422,0.219,2.129	c0.026,0.282,0.051,0.557,0.071,0.839c0.013,0.216,0.251,0.328,0.425,0.203c0.219-0.164,0.444-0.328,0.676-0.485	c0.58-0.4,1.153-0.799,1.745-1.186l0.219-0.138C19.358,11.176,18.186,10.593,16.892,10.409z M21.806,19.065	c-0.702-0.046-1.398-0.111-2.1-0.177c-0.303-0.026-0.599-0.059-0.902-0.092c-0.193-0.026-0.348,0.17-0.277,0.36	c0.11,0.295,0.213,0.59,0.316,0.891c0.225,0.668,0.457,1.343,0.67,2.025l0.071,0.236c1.121-0.78,1.99-1.907,2.447-3.23	L21.806,19.065z M21.464,13.482l-0.174,0.19c-0.483,0.524-0.979,1.029-1.475,1.533c-0.316,0.328-0.657,0.642-0.985,0.963	c0.438,0.111,0.876,0.229,1.314,0.36c0.676,0.197,1.346,0.387,2.016,0.609l0.238,0.079c0.006-0.105,0.006-0.216,0.006-0.328	C22.405,15.638,22.063,14.472,21.464,13.482z M21.464,13.482l-0.174,0.19c-0.483,0.524-0.979,1.029-1.475,1.533	c-0.316,0.328-0.657,0.642-0.985,0.963c0.438,0.111,0.876,0.229,1.314,0.36c0.676,0.197,1.346,0.387,2.016,0.609l0.238,0.079	c0.006-0.105,0.006-0.216,0.006-0.328C22.405,15.638,22.063,14.472,21.464,13.482z M21.806,19.065	c-0.702-0.046-1.398-0.111-2.1-0.177c-0.303-0.026-0.599-0.059-0.902-0.092c-0.193-0.026-0.348,0.17-0.277,0.36	c0.11,0.295,0.213,0.59,0.316,0.891c0.225,0.668,0.457,1.343,0.67,2.025l0.071,0.236c1.121-0.78,1.99-1.907,2.447-3.23	L21.806,19.065z M16.892,10.409l0.032,0.256c0.09,0.708,0.155,1.422,0.219,2.129c0.026,0.282,0.051,0.557,0.071,0.839	c0.013,0.216,0.251,0.328,0.425,0.203c0.219-0.164,0.444-0.328,0.676-0.485c0.58-0.4,1.153-0.799,1.745-1.186l0.219-0.138	C19.358,11.176,18.186,10.593,16.892,10.409z M17.761,22.884c-0.374-0.603-0.721-1.225-1.069-1.841	c-0.155-0.269-0.303-0.537-0.444-0.812c-0.103-0.19-0.367-0.19-0.47,0c-0.148,0.282-0.303,0.557-0.464,0.826	c-0.354,0.616-0.708,1.232-1.082,1.835l-0.161,0.262c0.599,0.19,1.237,0.288,1.894,0.288c0.676,0,1.333-0.105,1.945-0.308	L17.761,22.884z M17.761,22.884c-0.374-0.603-0.721-1.225-1.069-1.841c-0.155-0.269-0.303-0.537-0.444-0.812	c-0.103-0.19-0.367-0.19-0.47,0c-0.148,0.282-0.303,0.557-0.464,0.826c-0.354,0.616-0.708,1.232-1.082,1.835l-0.161,0.262	c0.599,0.19,1.237,0.288,1.894,0.288c0.676,0,1.333-0.105,1.945-0.308L17.761,22.884z M16.892,10.409l0.032,0.256	c0.09,0.708,0.155,1.422,0.219,2.129c0.026,0.282,0.051,0.557,0.071,0.839c0.013,0.216,0.251,0.328,0.425,0.203	c0.219-0.164,0.444-0.328,0.676-0.485c0.58-0.4,1.153-0.799,1.745-1.186l0.219-0.138C19.358,11.176,18.186,10.593,16.892,10.409z M21.806,19.065c-0.702-0.046-1.398-0.111-2.1-0.177c-0.303-0.026-0.599-0.059-0.902-0.092c-0.193-0.026-0.348,0.17-0.277,0.36	c0.11,0.295,0.213,0.59,0.316,0.891c0.225,0.668,0.457,1.343,0.67,2.025l0.071,0.236c1.121-0.78,1.99-1.907,2.447-3.23	L21.806,19.065z M21.464,13.482l-0.174,0.19c-0.483,0.524-0.979,1.029-1.475,1.533c-0.316,0.328-0.657,0.642-0.985,0.963	c0.438,0.111,0.876,0.229,1.314,0.36c0.676,0.197,1.346,0.387,2.016,0.609l0.238,0.079c0.006-0.105,0.006-0.216,0.006-0.328	C22.405,15.638,22.063,14.472,21.464,13.482z M21.464,13.482l-0.174,0.19c-0.483,0.524-0.979,1.029-1.475,1.533	c-0.316,0.328-0.657,0.642-0.985,0.963c0.438,0.111,0.876,0.229,1.314,0.36c0.676,0.197,1.346,0.387,2.016,0.609l0.238,0.079	c0.006-0.105,0.006-0.216,0.006-0.328C22.405,15.638,22.063,14.472,21.464,13.482z M21.806,19.065	c-0.702-0.046-1.398-0.111-2.1-0.177c-0.303-0.026-0.599-0.059-0.902-0.092c-0.193-0.026-0.348,0.17-0.277,0.36	c0.11,0.295,0.213,0.59,0.316,0.891c0.225,0.668,0.457,1.343,0.67,2.025l0.071,0.236c1.121-0.78,1.99-1.907,2.447-3.23	L21.806,19.065z M16.892,10.409l0.032,0.256c0.09,0.708,0.155,1.422,0.219,2.129c0.026,0.282,0.051,0.557,0.071,0.839	c0.013,0.216,0.251,0.328,0.425,0.203c0.219-0.164,0.444-0.328,0.676-0.485c0.58-0.4,1.153-0.799,1.745-1.186l0.219-0.138	C19.358,11.176,18.186,10.593,16.892,10.409z M17.761,22.884c-0.358-0.593-0.716-1.206-1.069-1.841	c-0.152-0.272-0.3-0.543-0.444-0.812c-0.092-0.146-0.184-0.291-0.276-0.437c-0.051,0.099-0.101,0.207-0.148,0.321	c-0.016,0.039-0.031,0.078-0.045,0.116c-0.151,0.274-0.306,0.549-0.464,0.826c-0.359,0.629-0.72,1.24-1.082,1.835l-0.161,0.262	c0.599,0.19,1.237,0.288,1.894,0.288c0.676,0,1.333-0.105,1.945-0.308L17.761,22.884z M16.892,10.409l0.032,0.256	c0.09,0.708,0.155,1.422,0.219,2.129c0.026,0.282,0.051,0.557,0.071,0.839c0.013,0.216,0.251,0.328,0.425,0.203	c0.219-0.164,0.444-0.328,0.676-0.485c0.58-0.4,1.153-0.799,1.745-1.186l0.219-0.138C19.358,11.176,18.186,10.593,16.892,10.409z M21.806,19.065c-0.702-0.046-1.398-0.111-2.1-0.177c-0.303-0.026-0.599-0.059-0.902-0.092c-0.193-0.026-0.348,0.17-0.277,0.36	c0.11,0.295,0.213,0.59,0.316,0.891c0.225,0.668,0.457,1.343,0.67,2.025l0.071,0.236c1.121-0.78,1.99-1.907,2.447-3.23	L21.806,19.065z M21.464,13.482l-0.174,0.19c-0.483,0.524-0.979,1.029-1.475,1.533c-0.316,0.328-0.657,0.642-0.985,0.963	c0.438,0.111,0.876,0.229,1.314,0.36c0.676,0.197,1.346,0.387,2.016,0.609l0.238,0.079c0.006-0.105,0.006-0.216,0.006-0.328	C22.405,15.638,22.063,14.472,21.464,13.482z M21.464,13.482l-0.174,0.19c-0.483,0.524-0.979,1.029-1.475,1.533	c-0.316,0.328-0.657,0.642-0.985,0.963c0.438,0.111,0.876,0.229,1.314,0.36c0.676,0.197,1.346,0.387,2.016,0.609l0.238,0.079	c0.006-0.105,0.006-0.216,0.006-0.328C22.405,15.638,22.063,14.472,21.464,13.482z M21.806,19.065	c-0.702-0.046-1.398-0.111-2.1-0.177c-0.264-0.025-0.548-0.051-0.902-0.092c-0.185-0.021-0.337-0.04-0.439-0.053	c0.037,0.092,0.095,0.236,0.162,0.413c0.15,0.396,0.251,0.699,0.316,0.891c0.225,0.668,0.457,1.343,0.67,2.025l0.071,0.236	c1.121-0.78,1.99-1.907,2.447-3.23L21.806,19.065z M16.892,10.409l0.032,0.256c0.09,0.708,0.155,1.422,0.219,2.129	c0.026,0.282,0.051,0.557,0.071,0.839c0.013,0.216,0.251,0.328,0.425,0.203c0.219-0.164,0.444-0.328,0.676-0.485	c0.58-0.4,1.153-0.799,1.745-1.186l0.219-0.138C19.358,11.176,18.186,10.593,16.892,10.409z M16.892,10.409l0.032,0.256	c0.09,0.708,0.155,1.422,0.219,2.129c0.026,0.282,0.051,0.557,0.071,0.839c0.013,0.216,0.251,0.328,0.425,0.203	c0.219-0.164,0.444-0.328,0.676-0.485c0.58-0.4,1.153-0.799,1.745-1.186l0.219-0.138C19.358,11.176,18.186,10.593,16.892,10.409z M21.464,13.482l-0.174,0.19c-0.483,0.524-0.979,1.029-1.475,1.533c-0.316,0.328-0.657,0.642-0.985,0.963	c0.438,0.111,0.876,0.229,1.314,0.36c0.676,0.197,1.346,0.387,2.016,0.609l0.238,0.079c0.006-0.105,0.006-0.216,0.006-0.328	C22.405,15.638,22.063,14.472,21.464,13.482z M21.464,13.482l-0.174,0.19c-0.483,0.524-0.979,1.029-1.475,1.533	c-0.316,0.328-0.657,0.642-0.985,0.963c0.438,0.111,0.876,0.229,1.314,0.36c0.676,0.197,1.346,0.387,2.016,0.609l0.238,0.079	c0.006-0.105,0.006-0.216,0.006-0.328C22.405,15.638,22.063,14.472,21.464,13.482z M16.892,10.409l0.032,0.256	c0.09,0.708,0.155,1.422,0.219,2.129c0.026,0.282,0.051,0.557,0.071,0.839c0.013,0.216,0.251,0.328,0.425,0.203	c0.219-0.164,0.444-0.328,0.676-0.485c0.58-0.4,1.153-0.799,1.745-1.186l0.219-0.138C19.358,11.176,18.186,10.593,16.892,10.409z M16.892,10.409l0.032,0.256c0.09,0.708,0.155,1.422,0.219,2.129c0.026,0.282,0.051,0.557,0.071,0.839	c0.013,0.216,0.251,0.328,0.425,0.203c0.219-0.164,0.444-0.328,0.676-0.485c0.58-0.4,1.153-0.799,1.745-1.186l0.219-0.138	C19.358,11.176,18.186,10.593,16.892,10.409z M21.464,13.482l-0.174,0.19c-0.483,0.524-0.979,1.029-1.475,1.533	c-0.316,0.328-0.657,0.642-0.985,0.963c0.438,0.111,0.876,0.229,1.314,0.36c0.676,0.197,1.346,0.387,2.016,0.609l0.238,0.079	c0.006-0.105,0.006-0.216,0.006-0.328C22.405,15.638,22.063,14.472,21.464,13.482z M21.464,13.482l-0.174,0.19	c-0.483,0.524-0.979,1.029-1.475,1.533c-0.316,0.328-0.657,0.642-0.985,0.963c0.438,0.111,0.876,0.229,1.314,0.36	c0.676,0.197,1.346,0.387,2.016,0.609l0.238,0.079c0.006-0.105,0.006-0.216,0.006-0.328C22.405,15.638,22.063,14.472,21.464,13.482z M16.892,10.409l0.032,0.256c0.09,0.708,0.155,1.422,0.219,2.129c0.026,0.282,0.051,0.557,0.071,0.839	c0.013,0.216,0.251,0.328,0.425,0.203c0.219-0.164,0.444-0.328,0.676-0.485c0.58-0.4,1.153-0.799,1.745-1.186l0.219-0.138	C19.358,11.176,18.186,10.593,16.892,10.409z M16.892,10.409l0.032,0.256c0.09,0.708,0.155,1.422,0.219,2.129	c0.026,0.282,0.051,0.557,0.071,0.839c0.013,0.216,0.251,0.328,0.425,0.203c0.219-0.164,0.444-0.328,0.676-0.485	c0.58-0.4,1.153-0.799,1.745-1.186l0.219-0.138C19.358,11.176,18.186,10.593,16.892,10.409z M16.892,10.409l0.032,0.256	c0.073,0.71,0.146,1.42,0.219,2.129c0.024,0.28,0.047,0.559,0.071,0.839c0.009,0.128,0.017,0.257,0.026,0.385	c0.094-0.035,0.235-0.094,0.399-0.182c0.371-0.201,0.6-0.432,0.676-0.485c0.58-0.4,1.153-0.799,1.745-1.186l0.219-0.138	C19.358,11.176,18.186,10.593,16.892,10.409z"/><path fill="none" d="M8.577,19.209c-0.148,0.013-0.29,0.013-0.457-0.072c-0.2-0.085-0.386-0.138-0.554-0.079	c-0.174,0.033-0.341,0.079-0.509,0.131c-0.335,0.111-0.663,0.236-0.973,0.459c-0.316,0.229-0.754,0.151-0.979-0.17	c-0.219-0.321-0.148-0.767,0.167-0.989c0.161-0.118,0.361-0.157,0.541-0.124c0.367,0.079,0.721,0.052,1.069,0.007	c0.174-0.02,0.348-0.052,0.515-0.098c0.174-0.013,0.328-0.144,0.47-0.308c0.122-0.144,0.264-0.203,0.406-0.256	C8.332,18.219,8.429,18.724,8.577,19.209z"/><path fill="none" d="M13.362,24.293c-0.077,0.144-0.167,0.275-0.348,0.373c-0.187,0.105-0.341,0.229-0.399,0.4	c-0.077,0.157-0.148,0.321-0.206,0.485c-0.116,0.341-0.219,0.681-0.225,1.068c-0.013,0.393-0.341,0.701-0.728,0.688	c-0.386-0.013-0.689-0.341-0.676-0.734c0.006-0.203,0.097-0.38,0.232-0.504c0.283-0.262,0.477-0.564,0.657-0.865	c0.084-0.157,0.161-0.315,0.232-0.478c0.09-0.151,0.084-0.354,0.045-0.57c-0.045-0.203,0-0.367,0.052-0.518	C12.428,23.9,12.886,24.123,13.362,24.293z"/><path fill="none" d="M21.007,27.091c-0.264,0.288-0.702,0.308-0.992,0.046c-0.148-0.138-0.225-0.321-0.225-0.511	c-0.013-0.387-0.109-0.727-0.225-1.068c-0.058-0.164-0.122-0.328-0.2-0.491c-0.058-0.17-0.213-0.288-0.399-0.4	c-0.18-0.098-0.27-0.236-0.361-0.387c0.483-0.177,0.947-0.406,1.378-0.675v0.007c0.052,0.17,0.109,0.334,0.058,0.557	c-0.045,0.216-0.052,0.413,0.039,0.57c0.071,0.157,0.148,0.321,0.232,0.472c0.174,0.308,0.367,0.616,0.651,0.871	C21.245,26.351,21.265,26.796,21.007,27.091z"/><path fill="none" d="M26.52,19.628c-0.193,0.046-0.386,0-0.541-0.098c-0.316-0.216-0.651-0.334-0.985-0.432	c-0.167-0.046-0.341-0.085-0.509-0.111c-0.167-0.052-0.361,0-0.554,0.092c-0.193,0.111-0.367,0.092-0.547,0.079h-0.019	c0.148-0.491,0.245-1.002,0.296-1.527h0.006c0.167,0.052,0.335,0.098,0.483,0.275c0.148,0.157,0.303,0.275,0.477,0.288	c0.174,0.039,0.341,0.066,0.515,0.085c0.354,0.033,0.702,0.046,1.076-0.039c0.38-0.085,0.754,0.157,0.837,0.544	C27.139,19.163,26.9,19.543,26.52,19.628z"/><polygon points="16.892,17.604 15.841,18.125 14.778,17.628 14.503,16.487 15.224,15.561 16.398,15.548 17.14,16.456"/></svg>